<?xml version="1.0" encoding="UTF-8"?>
<!DOCTYPE svg PUBLIC "-//W3C//DTD SVG 1.1//EN" "http://www.w3.org/Graphics/SVG/1.1/DTD/svg11.dtd">
<svg xmlns="http://www.w3.org/2000/svg" version="1.1" width="64px" height="64px" style="shape-rendering:geometricPrecision; text-rendering:geometricPrecision; image-rendering:optimizeQuality; fill-rule:evenodd; clip-rule:evenodd" xmlns:xlink="http://www.w3.org/1999/xlink">
<g><path style="opacity:0.784" fill="#0095eb" d="M 63.5,5.5 C 63.5,20.5 63.5,35.5 63.5,50.5C 61.9009,52.309 59.9009,53.6424 57.5,54.5C 56.7469,56.7534 55.4136,58.5867 53.5,60C 36.5,60.6667 19.5,60.6667 2.5,60C 1.62656,58.955 0.626561,58.1217 -0.5,57.5C -0.5,40.1667 -0.5,22.8333 -0.5,5.5C 0.626561,4.87833 1.62656,4.04499 2.5,3C 21.8333,2.33333 41.1667,2.33333 60.5,3C 61.3734,4.04499 62.3734,4.87833 63.5,5.5 Z M 5.5,5.5 C 22.8365,5.33339 40.1699,5.50006 57.5,6C 58.4162,6.37424 59.2496,6.87424 60,7.5C 60.4995,13.8246 60.6662,20.1579 60.5,26.5C 59.5,26.5 58.5,26.5 57.5,26.5C 58.4294,21.2346 57.0961,16.7346 53.5,13C 37.1667,12.6667 20.8333,12.3333 4.5,12C 1.77701,9.34132 2.11034,7.17465 5.5,5.5 Z M 2.5,15.5 C 18.5035,15.3334 34.5035,15.5001 50.5,16C 51.4162,16.3742 52.2496,16.8742 53,17.5C 53.498,20.4816 53.6646,23.4816 53.5,26.5C 52.1667,26.5 50.8333,26.5 49.5,26.5C 49.5,27.5 49.5,28.5 49.5,29.5C 53.1667,29.5 56.8333,29.5 60.5,29.5C 60.5,32.8333 60.5,36.1667 60.5,39.5C 52.4931,39.6664 44.4931,39.4997 36.5,39C 41.9047,38.1921 43.2381,35.5254 40.5,31C 36.7741,29.9568 37.1074,29.4568 41.5,29.5C 41.5,28.5 41.5,27.5 41.5,26.5C 31.0787,26.3548 27.912,31.0214 32,40.5C 32.7504,41.1258 33.5838,41.6258 34.5,42C 40.8246,42.4995 47.1579,42.6662 53.5,42.5C 53.6657,46.8461 53.499,51.1794 53,55.5C 52.2496,56.1258 51.4162,56.6258 50.5,57C 34.7409,57.9683 19.0742,57.6349 3.5,56C 2.51033,42.5792 2.177,29.0792 2.5,15.5 Z M 22.5,35.5 C 22.1667,36.8333 21.8333,38.1667 21.5,39.5C 11.9888,35.759 8.48884,38.759 11,48.5C 13.7191,49.4438 16.5525,49.7771 19.5,49.5C 16.3752,50.4794 13.0419,50.8128 9.5,50.5C 9.5,42.1667 9.5,33.8333 9.5,25.5C 13.6049,25.2338 17.6049,25.7338 21.5,27C 24.4156,29.7882 24.749,32.6215 22.5,35.5 Z M 13.5,30.5 C 21.2997,31.3919 21.2997,32.7252 13.5,34.5C 13.5,33.1667 13.5,31.8333 13.5,30.5 Z M 22.5,40.5 C 24.8184,43.2988 24.4851,45.9655 21.5,48.5C 22.2653,45.9039 22.5987,43.2372 22.5,40.5 Z M 13.5,42.5 C 21.5,43.5 21.5,44.5 13.5,45.5C 13.5,44.5 13.5,43.5 13.5,42.5 Z M 57.5,42.5 C 58.5,42.5 59.5,42.5 60.5,42.5C 61.0365,45.6646 60.2031,48.3312 58,50.5C 57.5026,47.854 57.3359,45.1873 57.5,42.5 Z"/></g>
<g><path style="opacity:0.587" fill="#0095eb" d="M 13.5,7.5 C 19.8421,7.33379 26.1754,7.50046 32.5,8C 33.8333,9 33.8333,10 32.5,11C 26.1667,11.6667 19.8333,11.6667 13.5,11C 12.3157,9.85453 12.3157,8.68787 13.5,7.5 Z"/></g>
<g><path style="opacity:0.44" fill="#0095eb" d="M 35.5,7.5 C 38.8606,8.20318 39.1939,9.53651 36.5,11.5C 35.5713,10.3112 35.238,8.97782 35.5,7.5 Z"/></g>
<g><path style="opacity:0.692" fill="#0095eb" d="M 11.5,19.5 C 12.7124,20.2299 13.7124,21.2299 14.5,22.5C 15.3333,21.5 16.1667,20.5 17,19.5C 18.5659,21.8223 20.7326,23.3223 23.5,24C 27.858,28.2038 28.5247,32.8704 25.5,38C 29.4964,46.1681 27.163,51.3348 18.5,53.5C 18.5,54.5 18.5,55.5 18.5,56.5C 17.5,56.5 16.5,56.5 15.5,56.5C 14.8333,52.5 14.1667,52.5 13.5,56.5C 12.5,56.5 11.5,56.5 10.5,56.5C 10.5,55.5 10.5,54.5 10.5,53.5C 8.07603,53.8076 5.74269,53.4742 3.5,52.5C 3.80762,51.6919 4.30762,51.0253 5,50.5C 5.16667,46.3333 5.33333,42.1667 5.5,38C 5.43826,33.3172 4.77159,28.8172 3.5,24.5C 5.48255,22.9755 7.81588,21.9755 10.5,21.5C 10.8627,20.8165 11.1961,20.1499 11.5,19.5 Z M 22.5,35.5 C 22.1667,36.8333 21.8333,38.1667 21.5,39.5C 11.9888,35.759 8.48884,38.759 11,48.5C 13.7191,49.4438 16.5525,49.7771 19.5,49.5C 16.3752,50.4794 13.0419,50.8128 9.5,50.5C 9.5,42.1667 9.5,33.8333 9.5,25.5C 13.6049,25.2338 17.6049,25.7338 21.5,27C 24.4156,29.7882 24.749,32.6215 22.5,35.5 Z M 13.5,30.5 C 13.5,31.8333 13.5,33.1667 13.5,34.5C 21.2997,32.7252 21.2997,31.3919 13.5,30.5 Z M 22.5,40.5 C 24.8184,43.2988 24.4851,45.9655 21.5,48.5C 22.2653,45.9039 22.5987,43.2372 22.5,40.5 Z M 13.5,42.5 C 13.5,43.5 13.5,44.5 13.5,45.5C 21.5,44.5 21.5,43.5 13.5,42.5 Z"/></g>
<g><path style="opacity:0.485" fill="#0095eb" d="M 44.5,26.5 C 45.5,26.5 46.5,26.5 47.5,26.5C 47.5,27.5 47.5,28.5 47.5,29.5C 46.5,29.5 45.5,29.5 44.5,29.5C 44.5,28.5 44.5,27.5 44.5,26.5 Z"/></g>
<g><path style="opacity:0.761" fill="#0095eb" d="M 22.5,35.5 C 18.8131,37.3429 14.8131,38.0095 10.5,37.5C 10.5,34.1667 10.5,30.8333 10.5,27.5C 13.8499,27.335 17.1832,27.5017 20.5,28C 22.2785,30.1354 22.9452,32.6354 22.5,35.5 Z M 13.5,30.5 C 13.5,31.8333 13.5,33.1667 13.5,34.5C 21.2997,32.7252 21.2997,31.3919 13.5,30.5 Z"/></g>
<g><path style="opacity:0.68" fill="#0095eb" d="M 21.5,39.5 C 21.5,40.1667 21.8333,40.5 22.5,40.5C 22.5987,43.2372 22.2653,45.9039 21.5,48.5C 20.5084,48.3284 19.8417,48.6618 19.5,49.5C 16.5525,49.7771 13.7191,49.4438 11,48.5C 8.48884,38.759 11.9888,35.759 21.5,39.5 Z M 13.5,42.5 C 13.5,43.5 13.5,44.5 13.5,45.5C 21.5,44.5 21.5,43.5 13.5,42.5 Z"/></g>
</svg>
