<svg xmlns="http://www.w3.org/2000/svg" xmlns:xlink="http://www.w3.org/1999/xlink" width="118" height="134" viewBox="0 0 118 134">
  <defs>
    <linearGradient id="linear-gradient" x1="-0.062" y1="0.218" x2="1.047" y2="0.774" gradientUnits="objectBoundingBox">
      <stop offset="0" stop-color="#ffc91f"/>
      <stop offset="1" stop-color="#ff8042"/>
    </linearGradient>
    <linearGradient id="linear-gradient-2" x1="0.003" y1="0.251" x2="0.984" y2="0.743" xlink:href="#linear-gradient"/>
    <filter id="パス_531" x="0" y="0" width="118" height="134" filterUnits="userSpaceOnUse">
      <feOffset input="SourceAlpha"/>
      <feGaussianBlur stdDeviation="3" result="blur"/>
      <feFlood flood-color="#ffc91f"/>
      <feComposite operator="in" in2="blur"/>
      <feComposite in="SourceGraphic"/>
    </filter>
    <linearGradient id="linear-gradient-3" x1="-0.673" y1="-7.405" x2="1.302" y2="5.894" xlink:href="#linear-gradient"/>
    <linearGradient id="linear-gradient-4" x1="-2.457" y1="-6.14" x2="1.699" y2="2.596" xlink:href="#linear-gradient"/>
    <linearGradient id="linear-gradient-5" x1="-6.345" y1="-1.872" x2="10.897" y2="4.1" xlink:href="#linear-gradient"/>
    <linearGradient id="linear-gradient-6" x1="-1.675" y1="-0.759" x2="3.8" y2="2.411" xlink:href="#linear-gradient"/>
    <linearGradient id="linear-gradient-7" x1="-1.258" y1="-3.619" x2="2.898" y2="5.117" xlink:href="#linear-gradient"/>
    <linearGradient id="linear-gradient-8" x1="-2.94" y1="-2.019" x2="2.465" y2="2.23" xlink:href="#linear-gradient"/>
    <linearGradient id="linear-gradient-9" x1="-3.04" y1="-1.877" x2="2.068" y2="1.559" xlink:href="#linear-gradient"/>
    <linearGradient id="linear-gradient-10" x1="-1.407" y1="-0.168" x2="7.45" y2="2.81" xlink:href="#linear-gradient"/>
    <linearGradient id="linear-gradient-11" x1="-2.323" y1="-0.457" x2="6.359" y2="2.486" xlink:href="#linear-gradient"/>
    <linearGradient id="linear-gradient-12" x1="-3.296" y1="-0.787" x2="5.387" y2="2.156" xlink:href="#linear-gradient"/>
    <linearGradient id="linear-gradient-13" x1="-4.269" y1="-1.117" x2="4.413" y2="1.827" xlink:href="#linear-gradient"/>
    <linearGradient id="linear-gradient-14" x1="-6.473" y1="-2.895" x2="3.983" y2="2.187" xlink:href="#linear-gradient"/>
  </defs>
  <g id="_レイヤー_1-2" transform="translate(9 9)">
    <g id="グループ_1202" data-name="グループ 1202">
      <path id="パス_530" data-name="パス 530" d="M49.849,109.171,5.61,83.5V32.153L49.849,6.48,94.088,32.153V83.5L49.849,109.171ZM6.637,82.9l43.212,25.074L93.061,82.9V32.752L49.849,7.667,6.637,32.752V82.91Z" transform="translate(0.151 0.174)" fill="url(#linear-gradient)"/>
      <g transform="matrix(1, 0, 0, 1, -9, -9)" filter="url(#パス_531)">
        <path id="パス_531-2" data-name="パス 531" d="M50,116,0,87V29L50,0l50,29V87ZM2.054,85.8,50,113.617,97.946,85.8V30.186L50,2.383,2.054,30.186Z" transform="translate(9 9)" fill="url(#linear-gradient-2)"/>
      </g>
      <g id="グループ_1201" data-name="グループ 1201" transform="translate(18.962 32.418)">
        <g id="グループ_1199" data-name="グループ 1199" transform="translate(0 21.072)">
          <rect id="長方形_184" data-name="長方形 184" width="45.975" height="3.954" rx="1.93" transform="translate(8.261 26.905) rotate(-12.9)" fill="url(#linear-gradient-3)"/>
          <path id="パス_532" data-name="パス 532" d="M68.907,70.354l10.31-5.022a.454.454,0,0,0-.2-.863H58.4a.453.453,0,0,0-.2.863l10.31,5.022a.457.457,0,0,0,.4,0Z" transform="translate(-17.403 -51.459)" fill="url(#linear-gradient-4)"/>
          <g id="グループ_1198" data-name="グループ 1198" transform="translate(2.099 7.866)">
            <path id="パス_533" data-name="パス 533" d="M28.519,63.36h1.037V64.4a3.8,3.8,0,0,1,1.879.472L31.1,66.04a4.6,4.6,0,0,0-2.013-.442c-1.017,0-1.243.38-1.243.7,0,.38.5.657,1.684.976,1.612.421,2.249.986,2.249,2.115,0,.965-.739,1.848-2.239,2.054v1.119H28.509V71.493a4.692,4.692,0,0,1-2.239-.585l.339-1.171a4.618,4.618,0,0,0,2.28.544c.842,0,1.417-.277,1.417-.77,0-.472-.462-.729-1.5-.986-1.551-.39-2.423-1.027-2.423-2.085,0-.986.709-1.828,2.146-2.013V63.36Z" transform="translate(-20.355 -59.355)" fill="url(#linear-gradient-5)"/>
            <path id="パス_534" data-name="パス 534" d="M29.177,61.165a6.963,6.963,0,1,1-6.962,6.963,6.968,6.968,0,0,1,6.962-6.963m0-1.7a8.667,8.667,0,1,0,8.667,8.667,8.669,8.669,0,0,0-8.667-8.667h0Z" transform="translate(-20.51 -59.46)" fill="url(#linear-gradient-6)"/>
          </g>
          <path id="パス_535" data-name="パス 535" d="M29.427,79.964l10.31-5.022a.454.454,0,0,0-.2-.863H18.922a.453.453,0,0,0-.2.863l10.31,5.022a.457.457,0,0,0,.4,0Z" transform="translate(-18.466 -51.2)" fill="url(#linear-gradient-7)"/>
          <path id="パス_536" data-name="パス 536" d="M48.609,75.565,40.722,86.933a.458.458,0,0,0,.37.719H56.855a.453.453,0,0,0,.37-.719L49.338,75.565a.461.461,0,0,0-.75,0Z" transform="translate(-17.869 -51.165)" fill="url(#linear-gradient-8)"/>
          <path id="パス_537" data-name="パス 537" d="M75.541,54.388l-5.083-1.273-.236-.062-5-1.253-5.36,4.488,6.9,11.265.472-.277,10.926-6.408-2.619-6.48Zm-1.15.852L72.84,58.331l-1.787-3.923,3.348.832ZM70,54.47l1.941,4.272-5.607-1.407Zm-.883-.555-3.358,2.619h0l.082-3.44,3.276.822Zm-4.272-.349h0l-.082,3.379-3.04-.76Zm-.031,4.405L65.95,64.1l-4.231-6.9Zm2.434,7.681-1.376-7.414,6.09,1.52-4.713,5.895Zm1.869-.76L73,60.026l3.091.77Zm4.426-5.751,1.52-3.019h0l1.52,3.779-3.04-.76h0Z" transform="translate(-17.352 -51.8)" fill="url(#linear-gradient-9)"/>
        </g>
        <g id="グループ_1200" data-name="グループ 1200" transform="translate(0.2)">
          <path id="パス_538" data-name="パス 538" d="M21,48.455a4.1,4.1,0,0,1-1.746-1.8,6.193,6.193,0,0,1-.6-2.845h0A9.409,9.409,0,0,1,18.9,41.8a13.224,13.224,0,0,1,.667-2.115c.051-.123.1-.236.154-.359a3.635,3.635,0,0,1,.164-.349l3.533-7.5h3.707l-4.19,8.677-.822-.431a2.046,2.046,0,0,1,.873-.873,2.8,2.8,0,0,1,1.345-.308,4.752,4.752,0,0,1,2.454.606,3.927,3.927,0,0,1,1.551,1.777,6.662,6.662,0,0,1,.534,2.8h0a6.373,6.373,0,0,1-.6,2.886,4.043,4.043,0,0,1-1.746,1.818,5.776,5.776,0,0,1-2.762.626,5.664,5.664,0,0,1-2.742-.616Zm4.1-3.05a2.023,2.023,0,0,0,.472-1.438h0a2.58,2.58,0,0,0-.472-1.674,1.629,1.629,0,0,0-1.345-.585,1.588,1.588,0,0,0-1.335.6,2.557,2.557,0,0,0-.472,1.653h0a2.017,2.017,0,0,0,.472,1.448,1.735,1.735,0,0,0,1.335.5,1.764,1.764,0,0,0,1.345-.513Z" transform="translate(-18.66 -31.275)" fill="url(#linear-gradient-10)"/>
          <path id="パス_539" data-name="パス 539" d="M32.595,47.762a4.88,4.88,0,0,1-1.325-3.635V36.219A4.839,4.839,0,0,1,32.6,32.574a5.344,5.344,0,0,1,3.871-1.294,5.37,5.37,0,0,1,3.882,1.294,4.858,4.858,0,0,1,1.325,3.646v7.907a4.839,4.839,0,0,1-1.335,3.646,5.344,5.344,0,0,1-3.871,1.294,5.333,5.333,0,0,1-3.882-1.314Zm5.34-2.526a3.431,3.431,0,0,0,.462-1.941V37.062a3.431,3.431,0,0,0-.462-1.941,1.908,1.908,0,0,0-2.916,0,3.431,3.431,0,0,0-.462,1.941v6.233a3.408,3.408,0,0,0,.462,1.941,1.908,1.908,0,0,0,2.916,0Z" transform="translate(-18.321 -31.28)" fill="url(#linear-gradient-11)"/>
          <path id="パス_540" data-name="パス 540" d="M45.765,47.762a4.88,4.88,0,0,1-1.325-3.635V36.219a4.839,4.839,0,0,1,1.335-3.646,5.344,5.344,0,0,1,3.871-1.294,5.37,5.37,0,0,1,3.882,1.294,4.858,4.858,0,0,1,1.325,3.646v7.907a4.839,4.839,0,0,1-1.335,3.646,5.344,5.344,0,0,1-3.871,1.294,5.333,5.333,0,0,1-3.882-1.314Zm5.34-2.526a3.431,3.431,0,0,0,.462-1.941V37.062a3.431,3.431,0,0,0-.462-1.941,1.908,1.908,0,0,0-2.916,0,3.431,3.431,0,0,0-.462,1.941v6.233a3.408,3.408,0,0,0,.462,1.941,1.908,1.908,0,0,0,2.916,0Z" transform="translate(-17.966 -31.28)" fill="url(#linear-gradient-12)"/>
          <path id="パス_541" data-name="パス 541" d="M58.935,47.762a4.88,4.88,0,0,1-1.325-3.635V36.219a4.839,4.839,0,0,1,1.335-3.646,5.344,5.344,0,0,1,3.871-1.294A5.37,5.37,0,0,1,66.7,32.574a4.858,4.858,0,0,1,1.325,3.646v7.907a4.839,4.839,0,0,1-1.335,3.646,5.344,5.344,0,0,1-3.871,1.294,5.333,5.333,0,0,1-3.882-1.314Zm5.34-2.526a3.431,3.431,0,0,0,.462-1.941V37.062a3.431,3.431,0,0,0-.462-1.941,1.908,1.908,0,0,0-2.916,0,3.431,3.431,0,0,0-.462,1.941v6.233a3.408,3.408,0,0,0,.462,1.941,1.908,1.908,0,0,0,2.916,0Z" transform="translate(-17.612 -31.28)" fill="url(#linear-gradient-13)"/>
          <path id="パス_542" data-name="パス 542" d="M70.672,42.543a1.739,1.739,0,0,1-.472-1.3v-.863a1.739,1.739,0,0,1,.472-1.3,1.848,1.848,0,0,1,1.345-.472,1.806,1.806,0,0,1,1.345.472,1.757,1.757,0,0,1,.472,1.325v.852a1.747,1.747,0,0,1-.472,1.314,1.844,1.844,0,0,1-1.345.462,1.806,1.806,0,0,1-1.345-.472Zm5.7-3.851H78.1L72.819,48.787H71.093l5.278-10.095Zm-4.128,2.783a.49.49,0,0,0,.082-.3v-.76a.425.425,0,0,0-.082-.277.271.271,0,0,0-.236-.1.284.284,0,0,0-.236.1.43.43,0,0,0-.082.3v.75a.469.469,0,0,0,.082.3.3.3,0,0,0,.236.1.284.284,0,0,0,.236-.1Zm3.44,6.942a1.738,1.738,0,0,1-.472-1.3v-.863a1.723,1.723,0,0,1,.472-1.3,1.848,1.848,0,0,1,1.345-.472,1.806,1.806,0,0,1,1.345.472,1.756,1.756,0,0,1,.472,1.325v.852a1.747,1.747,0,0,1-.472,1.314,1.844,1.844,0,0,1-1.345.462,1.806,1.806,0,0,1-1.345-.472Zm1.571-1.068a.49.49,0,0,0,.082-.3v-.76a.425.425,0,0,0-.082-.277.271.271,0,0,0-.236-.1.284.284,0,0,0-.236.1.49.49,0,0,0-.082.3v.75a.469.469,0,0,0,.082.3.3.3,0,0,0,.236.1.284.284,0,0,0,.236-.1Z" transform="translate(-17.273 -31.083)" fill="url(#linear-gradient-14)"/>
        </g>
      </g>
    </g>
  </g>
</svg>
