<svg xmlns="http://www.w3.org/2000/svg" xmlns:xlink="http://www.w3.org/1999/xlink" width="118" height="134" viewBox="0 0 118 134">
  <defs>
    <linearGradient id="linear-gradient" x1="-0.033" y1="0.212" x2="1.024" y2="0.783" gradientUnits="objectBoundingBox">
      <stop offset="0" stop-color="#ffc91f"/>
      <stop offset="1" stop-color="#ff8042"/>
    </linearGradient>
    <linearGradient id="linear-gradient-2" x1="0.028" y1="0.245" x2="0.964" y2="0.751" xlink:href="#linear-gradient"/>
    <filter id="パス_493" x="0" y="0" width="118" height="134" filterUnits="userSpaceOnUse">
      <feOffset input="SourceAlpha"/>
      <feGaussianBlur stdDeviation="3" result="blur"/>
      <feFlood flood-color="#ffc91f"/>
      <feComposite operator="in" in2="blur"/>
      <feComposite in="SourceGraphic"/>
    </filter>
    <linearGradient id="linear-gradient-3" x1="-3.507" y1="-7.049" x2="3.985" y2="6.963" xlink:href="#linear-gradient"/>
    <linearGradient id="linear-gradient-4" x1="-0.451" y1="-0.018" x2="1.814" y2="1.263" xlink:href="#linear-gradient"/>
    <linearGradient id="linear-gradient-5" x1="-11.665" y1="-4.322" x2="4.841" y2="2.224" xlink:href="#linear-gradient"/>
    <linearGradient id="linear-gradient-6" x1="-2.972" y1="-1.668" x2="1.739" y2="1.274" xlink:href="#linear-gradient"/>
    <linearGradient id="linear-gradient-7" x1="-3.465" y1="-2.952" x2="3.34" y2="3.081" xlink:href="#linear-gradient"/>
    <linearGradient id="linear-gradient-8" x1="-4.078" y1="-5.667" x2="3.63" y2="4.62" xlink:href="#linear-gradient"/>
    <linearGradient id="linear-gradient-9" x1="-6.287" y1="-4.971" x2="4.824" y2="4.073" xlink:href="#linear-gradient"/>
    <linearGradient id="linear-gradient-10" x1="-5.053" y1="-5.27" x2="3.446" y2="3.774" xlink:href="#linear-gradient"/>
    <linearGradient id="linear-gradient-11" x1="-2698.938" y1="-3370.28" x2="1856.458" y2="2317.505" xlink:href="#linear-gradient"/>
    <linearGradient id="linear-gradient-12" x1="-0.151" y1="-5.203" x2="1.141" y2="6.107" xlink:href="#linear-gradient"/>
  </defs>
  <g id="_レイヤー_1-2" transform="translate(9 9)">
    <g id="グループ_1191" data-name="グループ 1191">
      <path id="パス_492" data-name="パス 492" d="M49.849,109.171,5.61,83.5V32.153L49.849,6.48,94.088,32.153V83.5L49.849,109.171ZM6.637,82.9l43.212,25.074L93.061,82.9V32.752L49.849,7.667,6.637,32.752V82.91Z" transform="translate(0.151 0.174)" fill="url(#linear-gradient)"/>
      <g transform="matrix(1, 0, 0, 1, -9, -9)" filter="url(#パス_493)">
        <path id="パス_493-2" data-name="パス 493" d="M50,116,0,87V29L50,0l50,29V87ZM2.054,85.8,50,113.617,97.946,85.8V30.186L50,2.383,2.054,30.186Z" transform="translate(9 9)" fill="url(#linear-gradient-2)"/>
      </g>
      <g id="グループ_1190" data-name="グループ 1190" transform="translate(20.783 30.458)">
        <path id="パス_494" data-name="パス 494" d="M41.623,78.749c1.694,0,3.276-.072,4.755-.216a4.559,4.559,0,0,1-.246-1.448V74.58a44.743,44.743,0,0,1-4.518.216c-1.479,0-2.875-.062-4.2-.185L33.89,78.133a44.809,44.809,0,0,0,7.722.606Z" transform="translate(-19.871 -28.184)" fill="url(#linear-gradient-3)"/>
        <path id="パス_495" data-name="パス 495" d="M25.744,70.99c-1.633-2.115-1.982-5-1.047-8.554,2.167-8.226,9.068-15.773,9.139-15.856l1.273-1.366H48.86l1.273,1.366s.452.493,1.13,1.325l10.29-10.29a1.538,1.538,0,0,0-1.1.154L54.128,41.23,58,31.824a.483.483,0,0,0,0-.359.436.436,0,0,0-.267-.236s-3.132-1.623-4.9-1.623c-3.656,0-7.219,1.92-10.454,1.92a6.185,6.185,0,0,1-2.845-.637,12.66,12.66,0,0,0-5.8-1.489c-2.68,0-7.435,1.848-7.435,1.848a.416.416,0,0,0-.288.236.465.465,0,0,0-.021.37l4.262,10.351a1.581,1.581,0,0,0-.893,1.417,1.563,1.563,0,0,0,.678,1.294c-2.085,2.485-7.229,9.14-9.16,16.492-1.448,5.494-.462,10.269,3.266,13.6l2.8-2.8a7.472,7.472,0,0,1-1.191-1.232Zm7.979-37.637a8.856,8.856,0,0,1,4.036,1.068,10.205,10.205,0,0,0,4.611,1.047,22.067,22.067,0,0,0,5.946-1.058,18.339,18.339,0,0,1,4.5-.863H53l-3.5,8.493H34.442l-3.409-8.3a10.138,10.138,0,0,1,2.69-.411Z" transform="translate(-20.239 -29.4)" fill="url(#linear-gradient-4)"/>
        <path id="パス_496" data-name="パス 496" d="M68.181,72.789l-.976-.082a1.323,1.323,0,0,1-.739-.246.682.682,0,0,1-.216-.544.789.789,0,0,1,.308-.647,1.519,1.519,0,0,1,.955-.246,3.947,3.947,0,0,1,.934.113,2.714,2.714,0,0,1,.647.318.2.2,0,0,0,.236-.041l.585-.6a.389.389,0,0,0,.051-.175.232.232,0,0,0-.1-.154,2.875,2.875,0,0,0-.893-.472,5.071,5.071,0,0,0-.822-.144V69H66.918v.893c-.144.021-.277.051-.411.082a2.522,2.522,0,0,0-.832.411,2.085,2.085,0,0,0-.565.667,1.985,1.985,0,0,0-.205.9,1.679,1.679,0,0,0,.534,1.366,2.73,2.73,0,0,0,1.52.544l1.109.092a1.274,1.274,0,0,1,.719.257.743.743,0,0,1,.216.565.774.774,0,0,1-.431.729,2.278,2.278,0,0,1-1.089.236,4.086,4.086,0,0,1-1.047-.144,2.69,2.69,0,0,1-.811-.5.188.188,0,0,0-.246.031l-.616.616a.549.549,0,0,0-.062.164.191.191,0,0,0,.092.154,3.971,3.971,0,0,0,1.119.668,6.236,6.236,0,0,0,1.006.175v1.017H68.15V76.887a3.646,3.646,0,0,0,.483-.092,2.679,2.679,0,0,0,.914-.421,2.157,2.157,0,0,0,.606-.688,2.059,2.059,0,0,0,.216-.965,1.752,1.752,0,0,0-.555-1.4,2.827,2.827,0,0,0-1.633-.575Z" transform="translate(-19.042 -28.334)" fill="url(#linear-gradient-5)"/>
        <path id="パス_497" data-name="パス 497" d="M67.72,63.69a9.93,9.93,0,1,0,9.93,9.93,9.931,9.931,0,0,0-9.93-9.93Zm0,17.386a7.455,7.455,0,1,1,7.455-7.455A7.459,7.459,0,0,1,67.72,81.076Z" transform="translate(-19.228 -28.477)" fill="url(#linear-gradient-6)"/>
        <path id="パス_498" data-name="パス 498" d="M62.687,56.736c0,.791-2.506,2.29-6.418,2.29a13.689,13.689,0,0,1-2.834-.288L50.58,61.594a13.382,13.382,0,0,0,5.7,1.15c4.446,0,8.051-1.756,8.051-3.923V56.726c0-1.684-2.167-3.112-5.217-3.666L57.676,54.5c3.112.3,5.022,1.54,5.022,2.228Z" transform="translate(-19.422 -28.763)" fill="url(#linear-gradient-7)"/>
        <path id="パス_499" data-name="パス 499" d="M56.321,68.819c.452,0,.893-.021,1.325-.051A11.329,11.329,0,0,1,60.408,65.1a15.142,15.142,0,0,1-4.087.544c-3.42,0-6.326-1.037-7.5-2.5l-.555.555v1.2c0,2.167,3.6,3.923,8.051,3.923Z" transform="translate(-19.484 -28.491)" fill="url(#linear-gradient-8)"/>
        <path id="パス_500" data-name="パス 500" d="M56.321,71.746c-3.861,0-7.1-1.325-7.876-3.091a.654.654,0,0,1-.062-.164.056.056,0,0,0-.051-.031.077.077,0,0,0-.072.072V71c0,2.167,3.6,3.923,8.051,3.923h.318a10.712,10.712,0,0,1-.092-1.417,10.083,10.083,0,0,1,.144-1.766c-.123.01-.246.01-.359.01Z" transform="translate(-19.485 -28.349)" fill="url(#linear-gradient-9)"/>
        <path id="パス_501" data-name="パス 501" d="M48.39,68.49h.01" transform="translate(-19.481 -28.348)" fill="#fff"/>
        <path id="パス_502" data-name="パス 502" d="M56.321,77.836c-3.861,0-7.1-1.325-7.876-3.1-.041-.1-.062-.144-.062-.154a.056.056,0,0,0-.051-.031.07.07,0,0,0-.072.072v2.465c0,2.167,3.6,3.923,8.051,3.923a14.993,14.993,0,0,0,2.957-.277,11.436,11.436,0,0,1-1.828-2.947c-.37.021-.75.041-1.13.041Z" transform="translate(-19.485 -28.185)" fill="url(#linear-gradient-10)"/>
        <path id="パス_503" data-name="パス 503" d="M48.39,74.58s.021,0,.021.01" transform="translate(-19.481 -28.184)" fill="url(#linear-gradient-11)"/>
        <rect id="長方形_183" data-name="長方形 183" width="72.418" height="5.165" transform="translate(1.779 51.318) rotate(-45)" fill="url(#linear-gradient-12)"/>
      </g>
    </g>
  </g>
</svg>
